# xmcd CD database file
#
# Track frame offsets:
#	150
#	17239
#	35116
#	50014
#	66420
#	88724
#	104731
#	124538
#	144715
#	163045
#	175018
#	190561
#	209799
#	229879
#	246111
#	274033
#
# Disc length: 3885 seconds
#
# Revision: 1
# Processed by: cddbd v1.5.1PL0 Copyright (c) Steve Scherf et al.
# Submitted via: CDex 1.60beta1
#
DISCID=f20f2b10
DTITLE=G WAVE - GWAVE 2004 1st Groove
DYEAR=2004
DGENRE=Game
TTITLE0=NANA - 星☆に願いを
TTITLE1=真優 - 空に馳せた願い
TTITLE2=KIRIKO - 碧ヶ淵-みどりがふち-
TTITLE3=U - レッゴー ラヴリィ 変身タイム！
TTITLE4=Minako - 快楽の絆 〜theme of sweet knight 2〜
TTITLE5=Rita - Sincere
TTITLE6=霜月はるか - 始まりの予感
TTITLE7=金松由花 - Blue Bird
TTITLE8=華憐 - Vampire
TTITLE9=真理絵 - はなマルッ！(ロングアレンジバージョン)
TTITLE10=橋本みゆき - Girls Life
TTITLE11=Ria - Still Dream
TTITLE12=NANA - カーニバル
TTITLE13=みるくくるみ - INNOCENT
TTITLE14=Saori - Precious Love
TTITLE15=今井美里 - 青い星の上で
EXTD=YEAR: 2004
EXTT0=
EXTT1=
EXTT2=
EXTT3=
EXTT4=
EXTT5=
EXTT6=
EXTT7=
EXTT8=
EXTT9=
EXTT10=
EXTT11=
EXTT12=
EXTT13=
EXTT14=
EXTT15=
PLAYORDER=
